<svg version="1.1" xmlns="http://www.w3.org/2000/svg" viewBox="0 0 898 412" width="898" height="412">
  <!-- svg-source:excalidraw -->
  
  <defs>
    <style class="style-fonts">
      @font-face {
        font-family: "Virgil";
        src: url("https://excalidraw.com/Virgil.woff2");
      }
      @font-face {
        font-family: "Cascadia";
        src: url("https://excalidraw.com/Cascadia.woff2");
      }
      @font-face {
        font-family: "Assistant";
        src: url("https://excalidraw.com/Assistant-Regular.woff2");
      }
    </style>
    
  </defs>
  <rect x="0" y="0" width="898" height="412" fill="#ffffff"></rect><g stroke-linecap="round" transform="translate(10 10) rotate(0 439 196)"><path d="M0 0 C241.86 1.58, 483.28 2.06, 878 0 M0 0 C298.28 2.67, 596.52 2.75, 878 0 M878 0 C875.85 110.61, 876.41 220.38, 878 392 M878 0 C878 140.86, 878.58 281.03, 878 392 M878 392 C559.09 391.82, 239.69 391.19, 0 392 M878 392 C630.98 393.97, 383.33 393.91, 0 392 M0 392 C-1.76 241.55, -0.51 93.84, 0 0 M0 392 C2.03 272.99, 1.67 153.82, 0 0" stroke="#1e1e1e" stroke-width="1" fill="none"></path></g><g stroke-linecap="round" transform="translate(101 336) rotate(0 263 18)"><path d="M0 0 C183.48 -0.83, 368.76 -0.81, 526 0 M0 0 C160.04 2.24, 319.81 1.73, 526 0 M526 0 C524.71 12.02, 527.38 23.84, 526 36 M526 0 C526.23 11.92, 526.37 22.99, 526 36 M526 36 C419.82 34.44, 312.08 34.97, 0 36 M526 36 C351.08 34.98, 175.81 34.81, 0 36 M0 36 C-1.9 23.4, 0.18 15.3, 0 0 M0 36 C-1.05 24.33, -0.46 10.95, 0 0" stroke="#1e1e1e" stroke-width="1" fill="none"></path></g><g transform="translate(218.6875 344.4) rotate(0 145.3125 9.600000000000023)"><text x="145.3125" y="15.45" font-family="Cascadia, Segoe UI Emoji" font-size="16px" fill="#1e1e1e" text-anchor="middle" style="white-space: pre;" direction="ltr" dominant-baseline="alphabetic">On-chain attest/incentive layer</text></g><g stroke-linecap="round" transform="translate(99 275) rotate(0 263 18)"><path d="M0 0 C175.23 -0.33, 350.39 -0.72, 526 0 M0 0 C141.14 0.26, 281.73 0.71, 526 0 M526 0 C526.97 9.41, 526.37 19.26, 526 36 M526 0 C525.17 11.32, 525.59 21.99, 526 36 M526 36 C355.19 38.22, 182.49 37.39, 0 36 M526 36 C378.28 34.35, 230.76 33.85, 0 36 M0 36 C-1.47 24.55, 2.27 12.71, 0 0 M0 36 C0.4 22.78, 0.8 8.53, 0 0" stroke="#1e1e1e" stroke-width="1" fill="none"></path></g><g transform="translate(254.1875 283.4) rotate(0 107.8125 9.600000000000023)"><text x="107.8125" y="15.45" font-family="Cascadia, Segoe UI Emoji" font-size="16px" fill="#1e1e1e" text-anchor="middle" style="white-space: pre;" direction="ltr" dominant-baseline="alphabetic">AI native storage layer</text></g><g stroke-linecap="round" transform="translate(103 82) rotate(0 61 26.5)"><path d="M0 0 C30.78 -0.77, 61.65 1.4, 122 0 M0 0 C26.91 0.46, 55.77 1.49, 122 0 M122 0 C121.88 11.88, 121.54 22.63, 122 53 M122 0 C122.42 15.72, 122.14 32.1, 122 53 M122 53 C90.94 53.37, 61.86 53.12, 0 53 M122 53 C87.77 52.71, 56.32 53.46, 0 53 M0 53 C0.49 34.02, 0.3 10.33, 0 0 M0 53 C-0.52 40.51, 1.07 27.71, 0 0" stroke="#1e1e1e" stroke-width="1" fill="none"></path></g><g transform="translate(121.8125 89.30000000000001) rotate(0 42.1875 19.19999999999999)"><text x="42.1875" y="15.45" font-family="Cascadia, Segoe UI Emoji" font-size="16px" fill="#1e1e1e" text-anchor="middle" style="white-space: pre;" direction="ltr" dominant-baseline="alphabetic">Inference</text><text x="42.1875" y="34.65" font-family="Cascadia, Segoe UI Emoji" font-size="16px" fill="#1e1e1e" text-anchor="middle" style="white-space: pre;" direction="ltr" dominant-baseline="alphabetic">subnet 1</text></g><g transform="translate(388 96) rotate(0 14.0625 9.599999999999994)"><text x="0" y="15.45" font-family="Cascadia, Segoe UI Emoji" font-size="16px" fill="#1e1e1e" text-anchor="start" style="white-space: pre;" direction="ltr" dominant-baseline="alphabetic">...</text></g><g stroke-linecap="round" transform="translate(445 83.5) rotate(0 61 24.5)"><path d="M0 0 C28.96 1.97, 56.74 2.1, 122 0 M0 0 C42.62 -0.29, 85.66 -0.21, 122 0 M122 0 C122.49 17.49, 121.03 35.75, 122 49 M122 0 C121.62 11.26, 121.84 23.86, 122 49 M122 49 C87.91 50.24, 53.76 49.47, 0 49 M122 49 C97.41 48.04, 71.87 49.14, 0 49 M0 49 C-0.32 31.93, 1.41 14.18, 0 0 M0 49 C-0.03 36.47, -0.14 26.22, 0 0" stroke="#1e1e1e" stroke-width="1" fill="none"></path></g><g transform="translate(463.8125 88.80000000000001) rotate(0 42.1875 19.19999999999999)"><text x="42.1875" y="15.45" font-family="Cascadia, Segoe UI Emoji" font-size="16px" fill="#1e1e1e" text-anchor="middle" style="white-space: pre;" direction="ltr" dominant-baseline="alphabetic">Inference</text><text x="42.1875" y="34.65" font-family="Cascadia, Segoe UI Emoji" font-size="16px" fill="#1e1e1e" text-anchor="middle" style="white-space: pre;" direction="ltr" dominant-baseline="alphabetic">subnet N</text></g><g transform="translate(204 30.600000000000023) rotate(0 164.0625 12)"><text x="0" y="19.3125" font-family="Cascadia, Segoe UI Emoji" font-size="20px" fill="#1e1e1e" text-anchor="start" style="white-space: pre;" direction="ltr" dominant-baseline="alphabetic">Verifiable computation layer</text></g><g stroke-linecap="round"><g transform="translate(689 68) rotate(0 1.5 147)"><path d="M0 0 C-0.76 109.07, 0.75 219.11, 3 294" stroke="#1e1e1e" stroke-width="1.5" fill="none" stroke-dasharray="8 9"></path></g></g><mask></mask><g transform="translate(746 29.600000000000023) rotate(0 52.734375 12)"><text x="0" y="19.3125" font-family="Cascadia, Segoe UI Emoji" font-size="20px" fill="#1e1e1e" text-anchor="start" style="white-space: pre;" direction="ltr" dominant-baseline="alphabetic">App layer</text></g><g stroke-linecap="round" transform="translate(724 72) rotate(0 65.5 34.5)"><path d="M80.83 -0.02 C90.88 0.98, 101.83 5.8, 109.83 9.78 C117.83 13.77, 125.74 18.42, 128.85 23.9 C131.95 29.39, 131.05 37.08, 128.45 42.69 C125.86 48.3, 120.61 53.37, 113.27 57.57 C105.94 61.77, 94.85 66.2, 84.44 67.91 C74.02 69.61, 61.33 69.06, 50.79 67.8 C40.25 66.53, 29.25 64.08, 21.2 60.33 C13.15 56.58, 5.75 50.99, 2.5 45.28 C-0.74 39.58, -0.72 31.91, 1.73 26.11 C4.17 20.31, 9.67 14.72, 17.19 10.48 C24.71 6.24, 34.85 1.82, 46.82 0.65 C58.8 -0.52, 80.5 2.66, 89.04 3.48 C97.59 4.3, 98.37 5.19, 98.07 5.55 M39.32 3.4 C48.46 0.33, 60.76 -1.67, 71.73 -0.92 C82.7 -0.16, 96.34 4.41, 105.14 7.95 C113.93 11.48, 120.49 15.06, 124.51 20.28 C128.54 25.49, 130.16 33.38, 129.29 39.26 C128.42 45.14, 125.58 50.91, 119.28 55.55 C112.99 60.2, 101.94 64.88, 91.52 67.11 C81.09 69.33, 67.32 69.53, 56.73 68.91 C46.13 68.29, 36.48 66.69, 27.93 63.39 C19.37 60.09, 9.91 54.69, 5.42 49.1 C0.93 43.52, -0.08 35.67, 0.98 29.88 C2.04 24.09, 5.2 18.79, 11.78 14.36 C18.36 9.93, 35.51 5, 40.45 3.3 C45.39 1.6, 41.02 3.9, 41.42 4.16" stroke="#1e1e1e" stroke-width="1" fill="none"></path></g><g transform="translate(761.559505832281 87.4048160490641) rotate(0 28.125 19.19999999999999)"><text x="28.125" y="15.45" font-family="Cascadia, Segoe UI Emoji" font-size="16px" fill="#1e1e1e" text-anchor="middle" style="white-space: pre;" direction="ltr" dominant-baseline="alphabetic">Model </text><text x="28.125" y="34.65" font-family="Cascadia, Segoe UI Emoji" font-size="16px" fill="#1e1e1e" text-anchor="middle" style="white-space: pre;" direction="ltr" dominant-baseline="alphabetic">upload</text></g><g stroke-linecap="round" transform="translate(722 155.5) rotate(0 69 34.5)"><path d="M96.07 2.73 C106.44 4.37, 117.28 9.27, 124.11 13.98 C130.94 18.69, 135.52 25.32, 137.04 30.98 C138.56 36.64, 137.71 42.72, 133.22 47.94 C128.73 53.17, 119.39 58.9, 110.08 62.33 C100.77 65.75, 88.51 67.69, 77.37 68.47 C66.22 69.25, 53.88 69.13, 43.21 66.99 C32.55 64.85, 20.53 60.22, 13.38 55.64 C6.24 51.05, 1.77 45.34, 0.37 39.49 C-1.04 33.64, 0.53 25.98, 4.96 20.55 C9.39 15.13, 17.6 10.38, 26.95 6.95 C36.29 3.53, 47.45 0, 61.04 0.02 C74.62 0.03, 99.13 5.08, 108.45 7.03 C117.77 8.99, 117.7 11.58, 116.97 11.74 M54.99 1.95 C65.31 0.36, 78.92 1.34, 89.7 2.86 C100.47 4.38, 111.67 7.22, 119.62 11.06 C127.58 14.91, 134.73 20.3, 137.42 25.93 C140.11 31.56, 139.49 39.03, 135.75 44.82 C132.01 50.6, 123.66 56.67, 114.98 60.63 C106.3 64.59, 94.72 67.57, 83.68 68.56 C72.64 69.56, 59.9 68.27, 48.73 66.6 C37.55 64.93, 24.66 62.74, 16.63 58.53 C8.59 54.32, 2.69 46.94, 0.5 41.34 C-1.69 35.75, -0.45 30.26, 3.49 24.95 C7.44 19.64, 15.71 13.41, 24.17 9.49 C32.62 5.58, 49.24 3.08, 54.21 1.49 C59.18 -0.1, 53.67 -0.49, 53.98 -0.03" stroke="#1e1e1e" stroke-width="1" fill="none"></path></g><g transform="translate(763.0846320981282 170.9048160490641) rotate(0 28.125 19.200000000000017)"><text x="28.125" y="15.45" font-family="Cascadia, Segoe UI Emoji" font-size="16px" fill="#1e1e1e" text-anchor="middle" style="white-space: pre;" direction="ltr" dominant-baseline="alphabetic">Model </text><text x="28.125" y="34.65" font-family="Cascadia, Segoe UI Emoji" font-size="16px" fill="#1e1e1e" text-anchor="middle" style="white-space: pre;" direction="ltr" dominant-baseline="alphabetic">deploy</text></g><g stroke-linecap="round" transform="translate(726 240.5) rotate(0 69 34.5)"><path d="M91.05 1.72 C101.83 3.16, 114.11 7.24, 121.75 11.71 C129.39 16.17, 134.78 22.88, 136.89 28.51 C139.01 34.14, 138.13 40.02, 134.44 45.49 C130.74 50.97, 123.69 57.44, 114.74 61.35 C105.8 65.26, 92.07 68.16, 80.79 68.95 C69.5 69.74, 57.91 67.98, 47.05 66.08 C36.19 64.19, 23.14 61.79, 15.63 57.6 C8.12 53.41, 4.05 46.71, 1.99 40.95 C-0.06 35.2, -0.3 28.42, 3.3 23.08 C6.91 17.74, 14.75 12.81, 23.63 8.9 C32.5 5, 44.76 0.79, 56.56 -0.35 C68.36 -1.48, 87.43 1.33, 94.44 2.09 C101.46 2.86, 98.87 3.66, 98.63 4.25 M61.61 1.22 C72.39 0.25, 87.76 1.9, 98.59 4.28 C109.41 6.65, 120.24 11.03, 126.56 15.46 C132.88 19.89, 135.59 25.43, 136.51 30.86 C137.44 36.28, 136.69 42.88, 132.11 48.04 C127.54 53.19, 118.57 58.3, 109.05 61.8 C99.54 65.29, 86.78 68.11, 75.03 68.99 C63.27 69.88, 49.06 69.4, 38.54 67.09 C28.02 64.79, 18.46 60.14, 11.91 55.16 C5.35 50.17, 0.24 43.24, -0.8 37.2 C-1.83 31.16, 0.5 23.95, 5.71 18.92 C10.91 13.9, 20.88 10.27, 30.46 7.07 C40.03 3.87, 57.87 0.66, 63.16 -0.27 C68.45 -1.19, 62.09 0.88, 62.19 1.51" stroke="#1e1e1e" stroke-width="1" fill="none"></path></g><g transform="translate(767.0846320981282 255.90481604906404) rotate(0 28.125 19.19999999999999)"><text x="28.125" y="15.45" font-family="Cascadia, Segoe UI Emoji" font-size="16px" fill="#1e1e1e" text-anchor="middle" style="white-space: pre;" direction="ltr" dominant-baseline="alphabetic">Model </text><text x="28.125" y="34.65" font-family="Cascadia, Segoe UI Emoji" font-size="16px" fill="#1e1e1e" text-anchor="middle" style="white-space: pre;" direction="ltr" dominant-baseline="alphabetic">trade</text></g><g stroke-linecap="round" transform="translate(730 320.5) rotate(0 69 34.5)"><path d="M95.71 3.01 C106.04 4.71, 116.95 8.58, 123.94 13.04 C130.92 17.49, 136.31 23.88, 137.62 29.77 C138.93 35.66, 136.18 42.92, 131.79 48.39 C127.39 53.86, 120.23 59.28, 111.25 62.57 C102.28 65.86, 89.33 67.48, 77.93 68.11 C66.53 68.73, 53.6 68.52, 42.85 66.32 C32.11 64.12, 20.49 59.6, 13.46 54.91 C6.43 50.21, 2.16 43.89, 0.66 38.16 C-0.85 32.44, 0.12 25.6, 4.42 20.56 C8.72 15.51, 17.16 11.25, 26.45 7.91 C35.74 4.57, 47.11 1.05, 60.14 0.53 C73.17 0, 95.94 3.45, 104.64 4.78 C113.35 6.11, 113.14 7.94, 112.37 8.51 M73.42 -0.63 C84.26 -1.15, 96.27 1.42, 105.55 4.7 C114.83 7.99, 123.91 13.69, 129.11 19.09 C134.32 24.48, 137.16 31.45, 136.79 37.08 C136.41 42.71, 132.76 48.39, 126.84 52.87 C120.92 57.35, 111.49 61.3, 101.27 63.95 C91.06 66.61, 77.38 68.77, 65.56 68.81 C53.75 68.85, 40.21 67.19, 30.38 64.19 C20.55 61.2, 11.58 56.13, 6.59 50.86 C1.6 45.59, -0.51 38.62, 0.44 32.59 C1.4 26.57, 6.26 19.27, 12.33 14.72 C18.39 10.17, 26.71 7.52, 36.85 5.28 C46.98 3.04, 67.24 2.06, 73.12 1.25 C79.01 0.44, 72.18 0.13, 72.16 0.4" stroke="#1e1e1e" stroke-width="1" fill="none"></path></g><g transform="translate(785.1471320981282 345.50481604906406) rotate(0 14.0625 9.600000000000023)"><text x="14.0625" y="15.45" font-family="Cascadia, Segoe UI Emoji" font-size="16px" fill="#1e1e1e" text-anchor="middle" style="white-space: pre;" direction="ltr" dominant-baseline="alphabetic">...</text></g><g stroke-linecap="round" transform="translate(69 158) rotate(0 293.5 50.5)"><path d="M0 0 C156.23 0.23, 313.35 0.25, 587 0 M0 0 C165.07 1.78, 331.09 1.69, 587 0 M587 0 C587.94 32.22, 588.77 64.41, 587 101 M587 0 C587 27.21, 588.36 55.1, 587 101 M587 101 C354.23 98.85, 119.98 98.72, 0 101 M587 101 C413.82 102.98, 240.14 102.86, 0 101 M0 101 C0.33 76.74, 1.54 51.94, 0 0 M0 101 C1.46 74.14, -0.21 46.46, 0 0" stroke="#1e1e1e" stroke-width="1" fill="none"></path></g><g transform="translate(248 169) rotate(0 103.125 9.599999999999994)"><text x="0" y="15.45" font-family="Cascadia, Segoe UI Emoji" font-size="16px" fill="#1e1e1e" text-anchor="start" style="white-space: pre;" direction="ltr" dominant-baseline="alphabetic">Interoperability layer</text></g><g stroke-linecap="round" transform="translate(101 200) rotate(0 45 23)"><path d="M0 0 C34.62 0.28, 72.69 1.3, 90 0 M0 0 C23.53 1.75, 45.12 1.01, 90 0 M90 0 C89.79 13.69, 88.71 29.37, 90 46 M90 0 C90.56 13.43, 88.69 24.83, 90 46 M90 46 C60.89 45.38, 32.74 45.24, 0 46 M90 46 C57.3 47, 23.48 47.29, 0 46 M0 46 C-1.77 27.32, 1.3 12.83, 0 0 M0 46 C-0.45 28.16, 0.3 12.35, 0 0" stroke="#1e1e1e" stroke-width="1" fill="none"></path></g><g transform="translate(136.625 213.39999999999998) rotate(0 9.375 9.600000000000023)"><text x="9.375" y="15.45" font-family="Cascadia, Segoe UI Emoji" font-size="16px" fill="#1e1e1e" text-anchor="middle" style="white-space: pre;" direction="ltr" dominant-baseline="alphabetic">DA</text></g><g stroke-linecap="round" transform="translate(247 197.99999999999994) rotate(0 45 24.50000000000003)"><path d="M0 0 C30.64 -1.77, 63.68 -0.19, 90 0 M0 0 C36.25 -0.82, 71.07 -0.29, 90 0 M90 0 C89.87 18.51, 88.99 36.09, 90 49 M90 0 C89.67 10.16, 90.67 21.11, 90 49 M90 49 C67.12 49.63, 43.76 47.69, 0 49 M90 49 C63.52 49.46, 36.62 48.62, 0 49 M0 49 C-0.75 30.11, 2.13 11.96, 0 0 M0 49 C0.31 34.25, 0.76 21.5, 0 0" stroke="#1e1e1e" stroke-width="1" fill="none"></path></g><g transform="translate(259.1875 203.29999999999995) rotate(0 32.8125 19.19999999999999)"><text x="32.8125" y="15.45" font-family="Cascadia, Segoe UI Emoji" font-size="16px" fill="#1e1e1e" text-anchor="middle" style="white-space: pre;" direction="ltr" dominant-baseline="alphabetic">Access</text><text x="32.8125" y="34.65" font-family="Cascadia, Segoe UI Emoji" font-size="16px" fill="#1e1e1e" text-anchor="middle" style="white-space: pre;" direction="ltr" dominant-baseline="alphabetic">control</text></g><g stroke-linecap="round" transform="translate(390 199.99999999999994) rotate(0 45 24.50000000000003)"><path d="M0 0 C26.9 -1.16, 53.94 -2.76, 90 0 M0 0 C30.43 -1.06, 59.13 -0.51, 90 0 M90 0 C91.1 11.7, 88.67 20.87, 90 49 M90 0 C90.08 17.1, 89.14 33.12, 90 49 M90 49 C71.9 49.17, 55.15 49.8, 0 49 M90 49 C54.09 48.93, 19.3 49.63, 0 49 M0 49 C-1.95 30.66, -0.38 9.58, 0 0 M0 49 C-0.19 33.22, 0.07 16.39, 0 0" stroke="#1e1e1e" stroke-width="1" fill="none"></path></g><g transform="translate(402.1875 205.29999999999995) rotate(0 32.8125 19.19999999999999)"><text x="32.8125" y="15.45" font-family="Cascadia, Segoe UI Emoji" font-size="16px" fill="#1e1e1e" text-anchor="middle" style="white-space: pre;" direction="ltr" dominant-baseline="alphabetic">Message</text><text x="32.8125" y="34.65" font-family="Cascadia, Segoe UI Emoji" font-size="16px" fill="#1e1e1e" text-anchor="middle" style="white-space: pre;" direction="ltr" dominant-baseline="alphabetic">routing</text></g><g stroke-linecap="round" transform="translate(525 198) rotate(0 51 24.5)"><path d="M0 0 C38.57 1.14, 80.36 -1.14, 102 0 M0 0 C27.92 -0.04, 56.8 0.89, 102 0 M102 0 C99.6 10.58, 102.68 24.45, 102 49 M102 0 C101.12 12.87, 102.02 25.79, 102 49 M102 49 C63.77 51.54, 25.64 48.31, 0 49 M102 49 C77.49 49.72, 51.73 50.15, 0 49 M0 49 C1.12 33.31, 0.36 21.84, 0 0 M0 49 C1.03 32.37, 0.22 16.3, 0 0" stroke="#1e1e1e" stroke-width="1" fill="none"></path></g><g transform="translate(533.8125 203.3) rotate(0 42.1875 19.200000000000017)"><text x="42.1875" y="15.45" font-family="Cascadia, Segoe UI Emoji" font-size="16px" fill="#1e1e1e" text-anchor="middle" style="white-space: pre;" direction="ltr" dominant-baseline="alphabetic">Storage </text><text x="42.1875" y="34.65" font-family="Cascadia, Segoe UI Emoji" font-size="16px" fill="#1e1e1e" text-anchor="middle" style="white-space: pre;" direction="ltr" dominant-baseline="alphabetic">interface</text></g><g stroke-linecap="round" transform="translate(240 82.5) rotate(0 61 26.5)"><path d="M0 0 C32.99 -0.88, 69.59 -0.79, 122 0 M0 0 C34.98 -0.15, 69.52 -0.79, 122 0 M122 0 C121.16 10.78, 123.24 23.74, 122 53 M122 0 C122.49 19.78, 122.34 38.09, 122 53 M122 53 C84.6 52.64, 46.71 53.12, 0 53 M122 53 C95.5 54.91, 68.67 54.35, 0 53 M0 53 C-0.82 35.18, -0.42 17.75, 0 0 M0 53 C-0.08 39.48, -0.27 26.16, 0 0" stroke="#1e1e1e" stroke-width="1" fill="none"></path></g><g transform="translate(258.8125 89.80000000000001) rotate(0 42.1875 19.19999999999999)"><text x="42.1875" y="15.45" font-family="Cascadia, Segoe UI Emoji" font-size="16px" fill="#1e1e1e" text-anchor="middle" style="white-space: pre;" direction="ltr" dominant-baseline="alphabetic">Inference</text><text x="42.1875" y="34.65" font-family="Cascadia, Segoe UI Emoji" font-size="16px" fill="#1e1e1e" text-anchor="middle" style="white-space: pre;" direction="ltr" dominant-baseline="alphabetic">subnet 2</text></g></svg>